<svg xmlns="http://www.w3.org/2000/svg" width="105" height="47" viewBox="0 0 105 47" fill="none">
<rect x="104.418" y="46.9409" width="51.9831" height="46.9409" transform="rotate(180 104.418 46.9409)" fill="#1BA0E1"/>
<path d="M69.3796 22.5217C68.8273 22.5217 68.3796 22.9694 68.3796 23.5217C68.3796 24.074 68.8273 24.5217 69.3796 24.5217L69.3796 22.5217ZM89.1267 24.2288C89.5172 23.8382 89.5172 23.2051 89.1267 22.8146L82.7627 16.4506C82.3722 16.0601 81.739 16.0601 81.3485 16.4506C80.958 16.8411 80.958 17.4743 81.3485 17.8648L87.0053 23.5217L81.3485 29.1785C80.958 29.569 80.958 30.2022 81.3485 30.5927C81.739 30.9833 82.3722 30.9833 82.7627 30.5927L89.1267 24.2288ZM69.3796 24.5217L88.4196 24.5217L88.4196 22.5217L69.3796 22.5217L69.3796 24.5217Z" fill="white"/>
<rect x="52.8955" y="46.9921" width="51.9831" height="46.9409" transform="rotate(180 52.8955 46.9921)" fill="#F1F1F1"/>
<path d="M37.0439 24.5728C37.5961 24.5728 38.0439 24.1251 38.0439 23.5728C38.0439 23.0205 37.5961 22.5728 37.0439 22.5728L37.0439 24.5728ZM17.2967 22.8657C16.9062 23.2562 16.9062 23.8894 17.2967 24.2799L23.6607 30.6439C24.0512 31.0344 24.6844 31.0344 25.0749 30.6439C25.4654 30.2534 25.4654 29.6202 25.0749 29.2297L19.418 23.5728L25.0749 17.916C25.4654 17.5254 25.4654 16.8923 25.0749 16.5017C24.6844 16.1112 24.0512 16.1112 23.6607 16.5017L17.2967 22.8657ZM37.0439 22.5728L18.0038 22.5728L18.0038 24.5728L37.0439 24.5728L37.0439 22.5728Z" fill="#B6B6B6"/>
</svg>