<svg xmlns="http://www.w3.org/2000/svg" width="119" height="118" viewBox="0 0 119 118" fill="none">
  <path d="M59.5 0C27.1817 0 0.890625 26.2929 0.890625 58.6094C0.890625 64.2491 1.71872 69.8075 3.29361 75.1599C1.74897 78.7899 0.890625 82.781 0.890625 86.9688C0.890625 103.648 14.4615 117.219 31.1406 117.219C35.3284 117.219 39.3176 116.362 42.9476 114.816C48.3056 116.391 53.8622 117.219 59.5 117.219C91.8183 117.219 118.109 90.9258 118.109 58.6094C118.109 26.2929 91.8183 0 59.5 0ZM4.67188 86.9688C4.67188 72.3731 16.545 60.5 31.1406 60.5C45.7362 60.5 57.6094 72.3731 57.6094 86.9688C57.6094 101.564 45.7362 113.438 31.1406 113.438C16.545 113.438 4.67188 101.564 4.67188 86.9688ZM14.1515 60.5H16.5299C15.7301 60.9424 14.9493 61.4151 14.195 61.9255C14.176 61.4396 14.1628 60.9594 14.1515 60.5ZM57.6094 103.909C57.1481 103.89 56.6867 103.886 56.2273 103.854C56.7227 103.12 57.1783 102.358 57.6094 101.581V103.909ZM59.5 113.438C55.5543 113.438 51.652 112.997 47.8367 112.171C49.8956 110.802 51.7598 109.172 53.4254 107.355C55.4352 107.601 57.4657 107.766 59.5 107.766C77.0998 107.766 93.4632 98.2633 102.207 82.9663L98.9252 81.0908C98.4091 81.9926 97.8627 82.8718 97.2917 83.7301L89.6725 78.1944L87.4491 81.2534L95.0494 86.774C92.862 89.5268 90.3815 91.9978 87.659 94.1512L82.144 86.5585L79.0869 88.7819L84.6056 96.3784C81.6997 98.3068 78.5726 99.8855 75.2981 101.107L72.3997 92.1888L68.8038 93.3572L71.7078 102.292C68.3727 103.228 64.9147 103.773 61.3906 103.92V94.5312H60.3943C61.022 92.1094 61.3906 89.5835 61.3906 86.9688C61.3906 70.2897 47.8197 56.7188 31.1406 56.7188C28.5259 56.7188 26 57.0874 23.5781 57.7151V56.7188H14.1723C14.3197 53.1587 14.8812 49.7064 15.8058 46.4016L24.7484 49.3075L25.9187 45.7115L16.9685 42.8019C18.1974 39.5046 19.8007 36.3889 21.7253 33.5019L29.3256 39.0244L31.549 35.9654L23.9581 30.4504C26.1286 27.7166 28.6072 25.238 31.341 23.0675L36.856 30.6603L39.9131 28.4369L34.3925 20.8366C37.2776 18.9119 40.3933 17.3087 43.6925 16.0798L46.6022 25.03L50.1981 23.8616L47.2922 14.917C50.5952 13.9925 54.0493 13.4291 57.6094 13.2816V22.6875H61.3906V13.2816C64.9507 13.4291 68.4048 13.9906 71.7078 14.9151L68.8 23.8597L72.396 25.0281L75.3056 16.0779C78.6029 17.3068 81.7186 18.91 84.6056 20.8347L79.085 28.435L82.1421 30.6584L87.6571 23.0656C90.3909 25.2361 92.8695 27.7128 95.04 30.4485L87.4491 35.9635L89.6725 39.0225L97.2728 33.5C99.1975 36.3851 100.801 39.5008 102.03 42.8L93.0794 45.7096L94.2497 49.3056L103.192 46.3997C104.117 49.7045 104.68 53.1568 104.826 56.7169H95.4219V60.4981H104.826C104.682 64.0222 104.147 67.4726 103.211 70.8228L94.2497 67.9094L93.0794 71.5053L102.033 74.415C101.655 75.4284 101.254 76.4323 100.803 77.423L104.24 78.9941C107.17 72.5811 108.656 65.7219 108.656 58.6094C108.656 31.5054 86.6059 9.45312 59.5 9.45312C32.3941 9.45312 10.3438 31.5054 10.3438 58.6094C10.3438 60.1918 10.4175 62.8557 10.5574 64.8636C8.81991 66.4838 7.25825 68.2875 5.93859 70.2726C5.11239 66.4593 4.67188 62.557 4.67188 58.6094C4.67188 28.3764 29.2689 3.78125 59.5 3.78125C89.7311 3.78125 114.328 28.3764 114.328 58.6094C114.328 88.8424 89.7311 113.438 59.5 113.438Z" fill="#1A87C7"/>
</svg>